<?xml version="1.0" encoding="UTF-8"?>
<svg id="_图层_2" data-name="图层 2" xmlns="http://www.w3.org/2000/svg" viewBox="0 0 193.7 19.39">
  <defs>
    <style>
      .cls-1 {
        fill: #fff;
      }
    </style>
  </defs>
  <g id="_图层_1-2" data-name="图层 1">
    <g>
      <path class="cls-1" d="M5.83,19.12V2.67H0V.27H14.5V2.67h-5.78V19.12h-2.89Z"/>
      <path class="cls-1" d="M17.04,19.12V9.85h7.18c.72,0,1.39-.13,2.01-.39s1.12-.67,1.5-1.22c.38-.55,.57-1.25,.57-2.09,0-.9-.2-1.59-.61-2.08-.41-.49-.92-.83-1.54-1.03-.62-.2-1.27-.3-1.96-.3h-7.15V.27h7.56c1.93,0,3.47,.47,4.63,1.4,1.16,.94,1.74,2.4,1.74,4.4,0,1.12-.28,2.18-.84,3.2-.56,1.02-1.34,1.79-2.35,2.31l-.38,.19,4.32,7.34h-3.19l-3.62-6.94h-4.97v6.94h-2.92Z"/>
      <path class="cls-1" d="M34.1,.27h2.83V11.85c0,1.48,.42,2.6,1.26,3.38,.84,.77,1.91,1.21,3.23,1.3,0,.49,0,.97-.01,1.44,0,.48-.01,.95-.01,1.42-1.39-.04-2.63-.32-3.74-.86-1.11-.54-1.98-1.32-2.61-2.34-.63-1.02-.95-2.27-.95-3.77V.27Zm12.42,11.72V.27h2.94V11.99h-2.94Z"/>
      <path class="cls-1" d="M53.41,19.12V6.56l2.78,5.35v7.21h-2.78Zm8.77-2.56L53.7,.27h2.78l6.91,13.01L70.36,.27h3.1V19.12h-2.89l-.08-13.74-6.24,11.18h-2.08Z"/>
      <path class="cls-1" d="M77.52,19.12V9.96h6.59c.74,0,1.42-.12,2.04-.36,.62-.24,1.12-.63,1.5-1.17,.38-.54,.57-1.25,.57-2.13,0-.94-.19-1.66-.57-2.16-.38-.5-.88-.86-1.5-1.07-.62-.21-1.31-.31-2.07-.31h-6.56V.27h7.21c2.03,0,3.64,.46,4.82,1.38,1.18,.92,1.77,2.43,1.77,4.54s-.6,3.61-1.8,4.67c-1.2,1.06-2.79,1.59-4.79,1.59h-4.29v6.67h-2.92Z"/>
      <path class="cls-1" d="M101.98,19.12V.27h7.56c1.87,0,3.4,.41,4.58,1.23,1.18,.82,2.05,1.94,2.61,3.35,.56,1.41,.84,3.03,.84,4.85s-.28,3.41-.85,4.83c-.57,1.42-1.44,2.54-2.62,3.36-1.18,.82-2.7,1.23-4.55,1.23h-7.56Zm2.94-2.86h3.43c2.16,0,3.72-.56,4.68-1.67,.96-1.12,1.44-2.74,1.44-4.89s-.49-3.78-1.47-4.9c-.98-1.12-2.54-1.69-4.68-1.69h-3.4v13.15Z"/>
      <path class="cls-1" d="M119.45,19.12L126.09,.27h4.16l7.24,18.85h-3.38l-5.86-16.5h-.16l-5.48,16.5h-3.16Z"/>
      <path class="cls-1" d="M140.07,19.12V5.99l2.81,4.05v9.07h-2.81Zm12.85,0L140.29,.27h2.83l9.99,14.45,.08-14.45h2.73V19.12h-3Z"/>
      <path class="cls-1" d="M174.34,12.88h2.97c-.29,1.42-.84,2.61-1.65,3.58-.81,.96-1.81,1.69-3,2.19-1.19,.5-2.5,.74-3.94,.74-1.94,0-3.63-.4-5.05-1.19-1.42-.79-2.52-1.92-3.31-3.38-.78-1.46-1.17-3.17-1.17-5.13,0-1.84,.38-3.49,1.13-4.95,.76-1.47,1.82-2.62,3.19-3.47,1.37-.85,2.96-1.27,4.78-1.27,1.51,0,2.91,.24,4.19,.73,1.28,.49,2.34,1.22,3.2,2.21,.85,.99,1.41,2.25,1.66,3.78h-2.92c-.4-1.42-1.12-2.48-2.17-3.19-1.05-.7-2.29-1.05-3.71-1.05-1.3,0-2.44,.31-3.42,.93-.98,.62-1.75,1.45-2.3,2.5-.55,1.04-.82,2.21-.82,3.51,0,.94,.15,1.85,.45,2.75,.3,.9,.73,1.71,1.31,2.42,.58,.71,1.27,1.28,2.08,1.7s1.73,.63,2.75,.63c1.33,0,2.52-.35,3.58-1.04,1.05-.69,1.78-1.7,2.17-3.01Z"/>
      <path class="cls-1" d="M180.25,3.1V.27h13.45V3.1h-13.45Zm0,7.91v-2.65h13.45v2.65h-13.45Zm0,8.1v-2.86h13.45v2.86h-13.45Z"/>
    </g>
  </g>
</svg>