<?xml version="1.0" encoding="utf-8"?>
<!-- Generator: Adobe Illustrator 26.0.2, SVG Export Plug-In . SVG Version: 6.00 Build 0)  -->
<svg version="1.1" id="_图层_2" xmlns="http://www.w3.org/2000/svg" xmlns:xlink="http://www.w3.org/1999/xlink" x="0px" y="0px"
	 viewBox="0 0 193.7 19.4" style="enable-background:new 0 0 193.7 19.4;" xml:space="preserve">
<style type="text/css">
	.st0{fill:#FFFFFF;}
</style>
<g id="_图层_1-2">
	<g>
		<path class="st0" d="M27.6,18V3.5h-5.2V1.4h12.8v2.1h-5.1V18C30.2,18,27.6,18,27.6,18z"/>
		<path class="st0" d="M37.5,18V9.8h6.3c0.6,0,1.2-0.1,1.8-0.3c0.5-0.2,1-0.6,1.3-1.1c0.3-0.5,0.5-1.1,0.5-1.8
			c0-0.8-0.2-1.4-0.5-1.8c-0.4-0.4-0.8-0.7-1.4-0.9c-0.5-0.2-1.1-0.3-1.7-0.3h-6.3V1.4h6.7c1.7,0,3.1,0.4,4.1,1.2
			c1,0.8,1.5,2.1,1.5,3.9c0,1-0.2,1.9-0.7,2.8s-1.2,1.6-2.1,2l-0.3,0.2l3.8,6.5h-2.8l-3.2-6.1h-4.4V18L37.5,18L37.5,18z"/>
		<path class="st0" d="M52.6,1.4h2.5v10.2c0,1.3,0.4,2.3,1.1,3c0.7,0.7,1.7,1.1,2.9,1.1c0,0.4,0,0.9,0,1.3c0,0.4,0,0.8,0,1.3
			c-1.2,0-2.3-0.3-3.3-0.8c-1-0.5-1.8-1.2-2.3-2.1c-0.6-0.9-0.8-2-0.8-3.3V1.4z M63.6,11.7V1.4h2.6v10.4
			C66.2,11.7,63.6,11.7,63.6,11.7z"/>
		<path class="st0" d="M69.7,18V6.9l2.5,4.7V18C72.1,18,69.7,18,69.7,18z M77.4,15.8L69.9,1.4h2.5l6.1,11.5l6.2-11.5h2.7V18h-2.6
			L84.8,5.9l-5.5,9.9H77.4L77.4,15.8z"/>
		<path class="st0" d="M91,18V9.9h5.8c0.7,0,1.3-0.1,1.8-0.3c0.5-0.2,1-0.6,1.3-1c0.3-0.5,0.5-1.1,0.5-1.9c0-0.8-0.2-1.5-0.5-1.9
			S99.2,4,98.6,3.8c-0.5-0.2-1.2-0.3-1.8-0.3H91V1.4h6.4c1.8,0,3.2,0.4,4.3,1.2c1,0.8,1.6,2.1,1.6,4s-0.5,3.2-1.6,4.1
			c-1.1,0.9-2.5,1.4-4.2,1.4h-3.8V18H91z"/>
		<path class="st0" d="M112.6,18V1.4h6.7c1.7,0,3,0.4,4,1.1c1,0.7,1.8,1.7,2.3,3s0.7,2.7,0.7,4.3s-0.2,3-0.8,4.3
			c-0.5,1.3-1.3,2.2-2.3,3c-1,0.7-2.4,1.1-4,1.1H112.6L112.6,18z M115.2,15.5h3c1.9,0,3.3-0.5,4.1-1.5c0.8-1,1.3-2.4,1.3-4.3
			s-0.4-3.3-1.3-4.3s-2.2-1.5-4.1-1.5h-3V15.5z"/>
		<path class="st0" d="M128.1,18l5.9-16.7h3.7L144,18h-3l-5.2-14.6h-0.1L130.8,18C130.8,18,128.1,18,128.1,18z"/>
		<path class="st0" d="M146.3,18V6.4l2.5,3.6v8L146.3,18L146.3,18z M157.6,18L146.5,1.4h2.5l8.8,12.8l0.1-12.8h2.4V18H157.6
			L157.6,18z"/>
		<path class="st0" d="M176.6,12.5h2.6c-0.3,1.3-0.7,2.3-1.5,3.2c-0.7,0.8-1.6,1.5-2.7,1.9c-1.1,0.4-2.2,0.7-3.5,0.7
			c-1.7,0-3.2-0.4-4.5-1.1s-2.2-1.7-2.9-3c-0.7-1.3-1-2.8-1-4.5c0-1.6,0.3-3.1,1-4.4c0.7-1.3,1.6-2.3,2.8-3.1
			c1.2-0.8,2.6-1.1,4.2-1.1c1.3,0,2.6,0.2,3.7,0.6s2.1,1.1,2.8,2c0.8,0.9,1.2,2,1.5,3.3h-2.6c-0.4-1.3-1-2.2-1.9-2.8
			c-0.9-0.6-2-0.9-3.3-0.9c-1.1,0-2.2,0.3-3,0.8s-1.5,1.3-2,2.2c-0.5,0.9-0.7,2-0.7,3.1c0,0.8,0.1,1.6,0.4,2.4
			c0.3,0.8,0.6,1.5,1.2,2.1c0.5,0.6,1.1,1.1,1.8,1.5c0.7,0.4,1.5,0.6,2.4,0.6c1.2,0,2.2-0.3,3.2-0.9
			C175.6,14.6,176.2,13.7,176.6,12.5L176.6,12.5z"/>
		<path class="st0" d="M181.8,3.9V1.4h11.9v2.5H181.8z M181.8,10.9V8.5h11.9v2.3H181.8z M181.8,18v-2.5h11.9V18H181.8z"/>
	</g>
</g>
<image style="overflow:visible;" width="80" height="80" xlink:href="favicon.png"  transform="matrix(0.2389 0 0 0.2389 1.1111 0.2588)">
</image>
</svg>
